<?xml version="1.0" encoding="UTF-8"?>
<!-- Generator: visioncortex VTracer 0.6.4 -->
<svg version="1.1" xmlns="http://www.w3.org/2000/svg" width="820" height="512">
<path d="M0 0 C270.6 0 541.2 0 820 0 C820 168.96 820 337.92 820 512 C549.4 512 278.8 512 0 512 C0 343.04 0 174.08 0 0 Z " fill="transparent" transform="translate(0,0)"/>
<path d="M0 0 C4.11 2.65 7.24 5.11 8.81 9.81 C9.05 12.05 9.05 12.05 9.12 14.56 C9.18 15.79 9.18 15.79 9.24 17.05 C8.25 23.44 3.91 28.16 -0.58 32.53 C-1.11 33.05 -1.63 33.58 -2.17 34.12 C-3.9 35.83 -5.63 37.54 -7.36 39.25 C-8.57 40.45 -9.79 41.65 -11 42.86 C-14.17 46.02 -17.36 49.17 -20.55 52.32 C-25.65 57.36 -30.73 62.41 -35.81 67.46 C-37.57 69.21 -39.34 70.95 -41.11 72.7 C-42.21 73.79 -43.31 74.88 -44.41 75.97 C-45.13 76.68 -45.13 76.68 -45.87 77.4 C-48.5 80.02 -50.98 82.71 -53.4 85.52 C-57.88 90.7 -62.76 95.49 -67.62 100.31 C-68.55 101.23 -69.47 102.15 -70.42 103.09 C-72.67 105.34 -74.93 107.58 -77.19 109.81 C-75.9 109.81 -74.61 109.82 -73.29 109.82 C-42.73 109.88 -12.17 109.95 18.38 110.04 C22.14 110.05 25.91 110.06 29.67 110.07 C30.42 110.08 31.16 110.08 31.94 110.08 C44.06 110.12 56.18 110.14 68.31 110.16 C80.75 110.18 93.19 110.22 105.63 110.26 C113.3 110.29 120.98 110.31 128.65 110.31 C134.54 110.32 140.43 110.34 146.31 110.37 C148.73 110.38 151.14 110.38 153.56 110.38 C156.85 110.38 160.15 110.39 163.44 110.41 C164.4 110.41 165.35 110.4 166.34 110.4 C172.52 110.46 177.69 111.12 182.55 115.31 C186.32 120.3 187.23 123.57 186.81 129.81 C185.37 135.09 183.51 137.21 179.25 140.62 C174.09 144.89 173.45 148.27 172.81 154.81 C179.41 154.81 186.01 154.81 192.81 154.81 C192.81 161.41 192.81 168.01 192.81 174.81 C199.41 174.81 206.01 174.81 212.81 174.81 C212.81 181.41 212.81 188.01 212.81 194.81 C219.41 194.81 226.01 194.81 232.81 194.81 C232.81 201.41 232.81 208.01 232.81 214.81 C239.41 214.81 246.01 214.81 252.81 214.81 C252.81 221.41 252.81 228.01 252.81 234.81 C259.41 234.81 266.01 234.81 272.81 234.81 C272.81 228.21 272.81 221.61 272.81 214.81 C282.71 214.32 282.71 214.32 292.81 213.81 C292.15 205.98 292.15 205.98 287.77 200.99 C286.48 199.71 286.48 199.71 285.17 198.4 C283.77 197.06 283.77 197.06 282.34 195.69 C281.37 194.73 280.4 193.78 279.43 192.82 C276.89 190.31 274.32 187.82 271.76 185.33 C268.66 182.33 265.58 179.3 262.5 176.28 C260.11 173.92 257.7 171.57 255.29 169.22 C250.21 164.28 245.38 159.23 240.81 153.81 C239.61 152.42 239.61 152.42 238.38 151 C236.05 146.26 235.95 141.99 236.81 136.81 C238.55 132.72 240.96 130.41 244.56 127.88 C249.73 126.18 254.36 125.84 259.47 127.87 C263.86 130.42 267.05 133.66 270.59 137.26 C271.32 137.99 272.05 138.72 272.8 139.48 C274.34 141.02 275.88 142.57 277.41 144.13 C279.73 146.48 282.07 148.83 284.4 151.17 C285.9 152.68 287.4 154.19 288.9 155.7 C289.59 156.39 290.28 157.09 290.99 157.8 C294.07 160.92 297.06 164.07 299.9 167.41 C305.02 173.33 310.65 178.76 316.19 184.27 C318.29 186.35 320.38 188.44 322.47 190.53 C326.92 194.96 331.36 199.39 335.81 203.81 C340.97 208.95 346.13 214.08 351.28 219.23 C353.33 221.27 355.39 223.31 357.44 225.35 C378.42 246.25 378.42 246.25 379.25 253.75 C379.24 259.19 376.75 264.07 373.1 267.96 C372.03 269.02 370.95 270.08 369.86 271.12 C369.28 271.69 368.7 272.26 368.11 272.85 C366.27 274.66 364.42 276.46 362.56 278.25 C360.73 280.04 358.89 281.84 357.06 283.64 C355.93 284.75 354.79 285.86 353.65 286.97 C350.9 289.65 348.3 292.38 345.81 295.31 C340.66 301.26 335.01 306.72 329.43 312.27 C327.34 314.35 325.24 316.44 323.15 318.53 C317.96 323.71 312.75 328.88 307.55 334.06 C303.15 338.45 298.74 342.83 294.34 347.23 C292.29 349.27 290.24 351.31 288.18 353.35 C282.18 359.34 276.27 365.32 270.81 371.81 C260.76 382.78 260.76 382.78 252.31 383.25 C247.82 383.08 245.26 381.78 241.81 378.81 C238.18 374.69 236.63 372.16 236.38 366.69 C236.31 365.78 236.25 364.87 236.19 363.93 C237.95 355.1 247.15 348.21 253.29 342.14 C254.3 341.14 255.31 340.13 256.32 339.12 C258.96 336.49 261.61 333.86 264.26 331.23 C266.95 328.56 269.63 325.89 272.31 323.21 C277.04 318.51 281.77 313.8 286.51 309.11 C287.27 308.35 288.03 307.59 288.81 306.81 C289.55 306.1 290.28 305.38 291.04 304.65 C293.43 302.21 295.7 299.71 297.96 297.16 C302.91 291.64 308.11 286.4 313.38 281.19 C314.29 280.28 315.2 279.37 316.14 278.43 C318.36 276.22 320.59 274.02 322.81 271.81 C321.51 271.81 320.22 271.81 318.88 271.81 C288.06 271.77 257.24 271.72 226.43 271.63 C222.63 271.62 218.84 271.61 215.05 271.6 C214.29 271.6 213.54 271.6 212.76 271.6 C200.53 271.57 188.31 271.55 176.08 271.54 C163.53 271.53 150.99 271.5 138.44 271.46 C130.7 271.43 122.96 271.42 115.22 271.42 C109.28 271.42 103.35 271.4 97.41 271.37 C94.98 271.36 92.54 271.36 90.1 271.37 C86.78 271.37 83.46 271.36 80.14 271.33 C78.69 271.34 78.69 271.34 77.21 271.35 C71.42 271.28 68.29 270.55 63.81 266.81 C63.24 266.34 62.66 265.86 62.06 265.38 C59.35 261.98 58.81 259.12 58.81 254.81 C56.83 254.81 54.85 254.81 52.81 254.81 C52.81 261.41 52.81 268.01 52.81 274.81 C59.41 274.81 66.01 274.81 72.81 274.81 C72.81 281.41 72.81 288.01 72.81 294.81 C79.41 294.81 86.01 294.81 92.81 294.81 C92.81 301.41 92.81 308.01 92.81 314.81 C99.41 314.81 106.01 314.81 112.81 314.81 C112.81 321.41 112.81 328.01 112.81 334.81 C119.41 334.81 126.01 334.81 132.81 334.81 C132.81 341.41 132.81 348.01 132.81 354.81 C139.41 354.81 146.01 354.81 152.81 354.81 C152.81 361.41 152.81 368.01 152.81 374.81 C159.41 374.81 166.01 374.81 172.81 374.81 C172.81 381.41 172.81 388.01 172.81 394.81 C179.41 394.81 186.01 394.81 192.81 394.81 C192.81 401.41 192.81 408.01 192.81 414.81 C186.21 414.81 179.61 414.81 172.81 414.81 C172.81 421.41 172.81 428.01 172.81 434.81 C166.21 434.81 159.61 434.81 152.81 434.81 C152.81 428.21 152.81 421.61 152.81 414.81 C146.21 414.81 139.61 414.81 132.81 414.81 C132.81 408.21 132.81 401.61 132.81 394.81 C126.21 394.81 119.61 394.81 112.81 394.81 C112.81 388.21 112.81 381.61 112.81 374.81 C106.21 374.81 99.61 374.81 92.81 374.81 C92.81 368.21 92.81 361.61 92.81 354.81 C86.21 354.81 79.61 354.81 72.81 354.81 C72.81 348.21 72.81 341.61 72.81 334.81 C66.21 334.81 59.61 334.81 52.81 334.81 C52.81 328.21 52.81 321.61 52.81 314.81 C46.21 314.81 39.61 314.81 32.81 314.81 C32.81 308.21 32.81 301.61 32.81 294.81 C26.21 294.81 19.61 294.81 12.81 294.81 C12.81 288.21 12.81 281.61 12.81 274.81 C6.21 274.81 -0.39 274.81 -7.19 274.81 C-7.19 268.54 -7.19 262.27 -7.19 255.81 C-10.16 254.82 -13.13 253.83 -16.19 252.81 C-18.78 250.95 -18.78 250.95 -20.86 248.84 C-21.66 248.04 -22.46 247.25 -23.28 246.43 C-24.11 245.57 -24.94 244.71 -25.79 243.83 C-26.67 242.95 -27.55 242.06 -28.46 241.14 C-30.78 238.8 -33.1 236.43 -35.4 234.07 C-37.74 231.68 -40.09 229.31 -42.44 226.94 C-56.25 212.96 -56.25 212.96 -60.39 208.09 C-65.36 202.34 -70.83 197.07 -76.23 191.73 C-78.26 189.71 -80.29 187.69 -82.32 185.67 C-88.08 179.93 -93.86 174.2 -99.63 168.47 C-103.18 164.95 -106.72 161.42 -110.26 157.9 C-111.6 156.56 -112.94 155.23 -114.28 153.9 C-133.22 135.16 -133.22 135.16 -133.5 126.5 C-133.54 125.76 -133.57 125.02 -133.61 124.26 C-132.59 118.36 -127.71 114.07 -123.57 110.04 C-123.04 109.51 -122.51 108.98 -121.96 108.44 C-120.27 106.77 -118.57 105.1 -116.88 103.44 C-115.19 101.78 -113.5 100.12 -111.82 98.46 C-110.78 97.43 -109.74 96.4 -108.69 95.38 C-106.04 92.76 -103.54 90.08 -101.12 87.25 C-96.39 81.78 -91.23 76.74 -86.11 71.66 C-84.24 69.81 -82.39 67.95 -80.53 66.1 C-75.92 61.5 -71.3 56.91 -66.68 52.32 C-62.77 48.43 -58.86 44.53 -54.95 40.63 C-53.13 38.82 -51.31 37.01 -49.49 35.2 C-44.34 30.08 -39.26 24.93 -34.54 19.4 C-31.58 15.93 -28.33 12.73 -25.12 9.5 C-24.44 8.8 -23.76 8.1 -23.06 7.37 C-16.15 0.41 -9.71 -3.62 0 0 Z " fill="transparent" transform="translate(287.1875,65.1875)"/>
<path d="M0 0 C4.11 2.65 7.24 5.11 8.81 9.81 C9.05 12.05 9.05 12.05 9.12 14.56 C9.18 15.79 9.18 15.79 9.24 17.05 C8.25 23.44 3.91 28.16 -0.58 32.53 C-1.11 33.05 -1.63 33.58 -2.17 34.12 C-3.9 35.83 -5.63 37.54 -7.36 39.25 C-8.57 40.45 -9.79 41.65 -11 42.86 C-14.17 46.02 -17.36 49.17 -20.55 52.32 C-25.65 57.36 -30.73 62.41 -35.81 67.46 C-37.57 69.21 -39.34 70.95 -41.11 72.7 C-42.21 73.79 -43.31 74.88 -44.41 75.97 C-45.13 76.68 -45.13 76.68 -45.87 77.4 C-48.5 80.02 -50.98 82.71 -53.4 85.52 C-57.88 90.7 -62.76 95.49 -67.62 100.31 C-68.55 101.23 -69.47 102.15 -70.42 103.09 C-72.67 105.34 -74.93 107.58 -77.19 109.81 C-75.9 109.81 -74.61 109.82 -73.29 109.82 C-42.73 109.88 -12.17 109.95 18.38 110.04 C22.14 110.05 25.91 110.06 29.67 110.07 C30.42 110.08 31.16 110.08 31.94 110.08 C44.06 110.12 56.18 110.14 68.31 110.16 C80.75 110.18 93.19 110.22 105.63 110.26 C113.3 110.29 120.98 110.31 128.65 110.31 C134.54 110.32 140.43 110.34 146.31 110.37 C148.73 110.38 151.14 110.38 153.56 110.38 C156.85 110.38 160.15 110.39 163.44 110.41 C164.4 110.41 165.35 110.4 166.34 110.4 C172.52 110.46 177.69 111.12 182.55 115.31 C186.32 120.3 187.23 123.57 186.81 129.81 C184.99 135.68 182.68 138.36 177.81 141.81 C175.04 142.74 173.37 142.94 170.51 142.95 C169.62 142.96 168.74 142.96 167.83 142.97 C166.86 142.97 165.89 142.97 164.88 142.97 C163.85 142.98 162.82 142.98 161.76 142.99 C158.29 143 154.81 143.01 151.34 143.02 C148.86 143.03 146.37 143.04 143.89 143.05 C138.54 143.07 133.18 143.09 127.83 143.1 C120.08 143.13 112.34 143.15 104.6 143.18 C92.04 143.23 79.48 143.27 66.92 143.32 C54.72 143.35 42.52 143.4 30.31 143.44 C29.19 143.44 29.19 143.44 28.04 143.45 C24.26 143.46 20.49 143.48 16.72 143.49 C-14.58 143.6 -45.89 143.71 -77.19 143.81 C-76.5 144.49 -75.82 145.17 -75.11 145.87 C-74.21 146.76 -73.31 147.66 -72.39 148.58 C-71.5 149.47 -70.61 150.35 -69.69 151.26 C-67.7 153.29 -65.81 155.34 -63.99 157.52 C-58.85 163.5 -53.13 168.94 -47.53 174.48 C-45.39 176.6 -43.25 178.73 -41.11 180.85 C-35.04 186.89 -28.96 192.93 -22.88 198.95 C-19.14 202.65 -15.41 206.36 -11.69 210.07 C-10.27 211.47 -8.85 212.88 -7.43 214.28 C-5.45 216.24 -3.47 218.21 -1.5 220.18 C-0.91 220.75 -0.33 221.32 0.27 221.91 C4.43 226.09 8.14 230.5 9.34 236.44 C9.27 242.42 8.53 246.04 4.81 250.81 C0.01 254.56 -3.64 255.27 -9.66 255.34 C-16.87 253.83 -22.09 247.18 -27.06 242.17 C-27.9 241.33 -28.74 240.49 -29.61 239.62 C-31.38 237.85 -33.15 236.07 -34.92 234.29 C-37.61 231.58 -40.3 228.88 -43 226.18 C-44.73 224.45 -46.46 222.72 -48.18 220.98 C-48.98 220.19 -49.78 219.39 -50.6 218.56 C-53.97 215.17 -57.27 211.76 -60.37 208.12 C-65.34 202.36 -70.83 197.08 -76.23 191.73 C-78.26 189.71 -80.29 187.69 -82.32 185.67 C-88.08 179.93 -93.86 174.2 -99.63 168.47 C-103.18 164.95 -106.72 161.42 -110.26 157.9 C-111.6 156.56 -112.94 155.23 -114.28 153.9 C-133.22 135.16 -133.22 135.16 -133.5 126.5 C-133.54 125.76 -133.57 125.02 -133.61 124.26 C-132.59 118.36 -127.71 114.07 -123.57 110.04 C-123.04 109.51 -122.51 108.98 -121.96 108.44 C-120.27 106.77 -118.57 105.1 -116.88 103.44 C-115.19 101.78 -113.5 100.12 -111.82 98.46 C-110.78 97.43 -109.74 96.4 -108.69 95.38 C-106.04 92.76 -103.54 90.08 -101.12 87.25 C-96.39 81.78 -91.23 76.74 -86.11 71.66 C-84.24 69.81 -82.39 67.95 -80.53 66.1 C-75.92 61.5 -71.3 56.91 -66.68 52.32 C-62.77 48.43 -58.86 44.53 -54.95 40.63 C-53.13 38.82 -51.31 37.01 -49.49 35.2 C-44.34 30.08 -39.26 24.93 -34.54 19.4 C-31.58 15.93 -28.33 12.73 -25.12 9.5 C-24.44 8.8 -23.76 8.1 -23.06 7.37 C-16.15 0.41 -9.71 -3.62 0 0 Z " fill="#121413" transform="translate(287.1875,65.1875)"/>
<path d="M0 0 C4.38 2.55 7.58 5.79 11.12 9.39 C11.85 10.12 12.58 10.85 13.33 11.61 C14.87 13.15 16.4 14.7 17.93 16.25 C20.26 18.61 22.59 20.95 24.93 23.3 C26.43 24.81 27.93 26.32 29.43 27.83 C30.12 28.52 30.81 29.21 31.52 29.93 C34.6 33.05 37.59 36.2 40.43 39.54 C45.55 45.46 51.18 50.89 56.72 56.39 C58.82 58.48 60.91 60.57 63 62.65 C67.44 67.09 71.89 71.51 76.34 75.94 C81.5 81.08 86.66 86.21 91.81 91.35 C93.86 93.4 95.91 95.44 97.97 97.48 C118.94 118.37 118.94 118.37 119.78 125.88 C119.77 131.32 117.28 136.2 113.63 140.09 C112.56 141.15 111.48 142.2 110.39 143.25 C109.81 143.82 109.23 144.39 108.63 144.98 C106.79 146.79 104.94 148.58 103.09 150.38 C101.25 152.17 99.42 153.97 97.59 155.77 C96.45 156.88 95.32 157.99 94.17 159.1 C91.42 161.78 88.82 164.51 86.34 167.44 C81.19 173.39 75.54 178.85 69.96 184.39 C67.86 186.48 65.77 188.57 63.68 190.65 C58.48 195.84 53.28 201.01 48.08 206.19 C43.67 210.58 39.27 214.96 34.87 219.35 C32.82 221.4 30.77 223.44 28.71 225.48 C22.7 231.46 16.8 237.44 11.34 243.94 C1.29 254.91 1.29 254.91 -7.16 255.38 C-11.66 255.21 -14.21 253.91 -17.66 250.94 C-21.29 246.82 -22.85 244.29 -23.1 238.82 C-23.16 237.91 -23.22 237 -23.28 236.06 C-21.52 227.23 -12.32 220.34 -6.19 214.27 C-5.18 213.27 -4.17 212.26 -3.16 211.25 C-0.51 208.61 2.13 205.99 4.78 203.36 C7.47 200.69 10.16 198.02 12.84 195.34 C17.57 190.63 22.3 185.93 27.03 181.23 C27.79 180.48 28.56 179.72 29.34 178.94 C30.44 177.87 30.44 177.87 31.57 176.77 C33.96 174.33 36.23 171.84 38.49 169.29 C43.44 163.77 48.64 158.53 53.9 153.32 C54.82 152.41 55.73 151.5 56.67 150.56 C58.89 148.35 61.11 146.15 63.34 143.94 C62.04 143.94 60.74 143.94 59.41 143.94 C28.59 143.9 -2.23 143.84 -33.05 143.76 C-36.84 143.75 -40.63 143.74 -44.42 143.73 C-45.18 143.73 -45.93 143.73 -46.71 143.73 C-58.94 143.7 -71.17 143.68 -83.39 143.67 C-95.94 143.66 -108.49 143.63 -121.03 143.59 C-128.77 143.56 -136.51 143.55 -144.26 143.55 C-150.19 143.55 -156.13 143.53 -162.06 143.5 C-164.5 143.49 -166.93 143.49 -169.37 143.49 C-172.69 143.5 -176.01 143.48 -179.33 143.46 C-180.3 143.47 -181.27 143.48 -182.26 143.48 C-188.06 143.41 -191.18 142.68 -195.66 138.94 C-196.24 138.47 -196.82 137.99 -197.41 137.5 C-200.66 133.44 -201.1 129.2 -200.98 124.15 C-200.3 119.42 -197.49 116.67 -194.04 113.63 C-190.88 111.38 -189.28 110.82 -185.46 110.8 C-184.58 110.8 -183.69 110.79 -182.78 110.79 C-181.8 110.78 -180.82 110.78 -179.82 110.78 C-178.78 110.78 -177.75 110.77 -176.68 110.77 C-173.19 110.75 -169.7 110.74 -166.21 110.74 C-163.72 110.73 -161.22 110.72 -158.73 110.71 C-153.35 110.68 -147.97 110.67 -142.59 110.65 C-134.82 110.63 -127.04 110.6 -119.26 110.57 C-106.65 110.52 -94.03 110.48 -81.42 110.44 C-69.16 110.4 -56.9 110.36 -44.64 110.31 C-43.51 110.31 -43.51 110.31 -42.36 110.3 C-38.57 110.29 -34.78 110.28 -30.99 110.26 C0.45 110.15 31.9 110.04 63.34 109.94 C62.73 109.33 62.12 108.73 61.48 108.1 C60.28 106.9 60.28 106.9 59.04 105.67 C58.24 104.88 57.45 104.09 56.62 103.27 C54.7 101.31 52.88 99.32 51.11 97.22 C46.33 91.66 41.08 86.57 35.89 81.41 C33.96 79.5 32.03 77.58 30.11 75.66 C26.02 71.58 21.93 67.51 17.84 63.44 C13.09 58.72 8.35 53.99 3.61 49.27 C1.72 47.39 -0.16 45.51 -2.05 43.64 C-7.8 37.91 -13.45 32.17 -18.66 25.94 C-19.46 25.01 -20.27 24.08 -21.1 23.13 C-23.42 18.39 -23.52 14.12 -22.66 8.94 C-20.92 4.85 -18.51 2.54 -14.91 0 C-9.74 -1.69 -5.11 -2.03 0 0 Z " fill="#121413" transform="translate(546.660400390625,193.059326171875)"/>
<path d="M0 0 C6.6 0 13.2 0 20 0 C20 6.6 20 13.2 20 20 C26.6 20 33.2 20 40 20 C40 20.99 40 21.98 40 23 C109.63 23 179.26 23 251 23 C251 23.33 251 23.66 251 24 C249.04 24 249.04 24 247.05 24 C216.11 24.04 185.17 24.1 154.23 24.18 C150.42 24.19 146.62 24.2 142.81 24.21 C142.05 24.21 141.29 24.21 140.51 24.21 C128.24 24.24 115.96 24.26 103.68 24.27 C91.09 24.29 78.49 24.31 65.9 24.35 C58.13 24.38 50.35 24.39 42.58 24.39 C36.62 24.39 30.66 24.41 24.7 24.44 C22.26 24.45 19.81 24.45 17.37 24.45 C14.03 24.44 10.7 24.46 7.36 24.48 C6.39 24.47 5.42 24.47 4.42 24.46 C-1.22 24.53 -4.56 25.17 -9 29 C-11.82 32.59 -13.46 35.45 -14 40 C-15.98 40 -17.96 40 -20 40 C-20 33.4 -20 26.8 -20 20 C-13.4 20 -6.8 20 0 20 C0 13.4 0 6.8 0 0 Z " fill="#dfdfdf10" transform="translate(360,280)"/>
<path d="M0 0 C6.6 0 13.2 0 20 0 C20 6.6 20 13.2 20 20 C12.11 13.24 12.11 13.24 9.47 10.61 C8.91 10.04 8.34 9.48 7.76 8.9 C7.2 8.34 6.64 7.77 6.06 7.19 C5.47 6.6 4.89 6.02 4.28 5.42 C0 1.13 0 1.13 0 0 Z " fill="#edeeee" transform="translate(260,260)"/>
<path d="M0 0 C6.6 0 13.2 0 20 0 C20 6.6 20 13.2 20 20 C12.11 13.24 12.11 13.24 9.47 10.61 C8.91 10.04 8.34 9.48 7.76 8.9 C7.2 8.34 6.64 7.77 6.06 7.19 C5.47 6.6 4.89 6.02 4.28 5.42 C0 1.13 0 1.13 0 0 Z " fill="#e6e7e717" transform="translate(220,220)"/>
<path d="M0 0 C-3.61 4.31 -7.31 8.35 -11.32 12.29 C-13.72 14.73 -15.85 17.33 -18 20 C-18.66 19.34 -19.32 18.68 -20 18 C-19.34 18 -18.68 18 -18 18 C-18 12.06 -18 6.12 -18 0 C-5.14 -1.29 -5.14 -1.29 0 0 Z " fill="#e6e7e717" transform="translate(198,140)"/>
<path d="M0 0 C5.94 0 11.88 0 18 0 C14.27 4.54 10.33 8.78 6.19 12.94 C5.7 13.43 5.2 13.93 4.7 14.44 C1.12 18 1.12 18 0 18 C0 12.06 0 6.12 0 0 Z " fill="#e6e7e717" transform="translate(200,120)"/>
<path d="M0 0 C5.61 0 11.22 0 17 0 C11.87 7.04 6.75 12.38 0 18 C0 12.06 0 6.12 0 0 Z " fill="#e6e7e717" transform="translate(240,80)"/>
<path d="M0 0 C0 5.28 0 10.56 0 16 C-3.06 16.23 -6.12 16.46 -9.18 16.68 C-11.95 16.83 -11.95 16.83 -14 18 C-14.33 18.66 -14.66 19.32 -15 20 C-16.65 20 -18.3 20 -20 20 C-15.99 15.08 -11.66 10.55 -7.19 6.06 C-6.6 5.47 -6.01 4.88 -5.41 4.27 C-1.12 0 -1.12 0 0 0 Z " fill="#e6e7e717" transform="translate(260,124)"/>
<path d="M0 0 C1.69 0.09 3.38 0.25 5.06 0.44 C7.51 0.72 7.51 0.72 10 1 C10 7.6 10 14.2 10 21 C7.36 21 4.72 21 2 21 C2.17 20.32 2.33 19.64 2.5 18.94 C3.74 11.66 2.63 7.24 -1 1 C-0.67 0.67 -0.34 0.34 0 0 Z " fill="#e6e7e717" transform="translate(470,179)"/>
<path d="M0 0 C0 5.28 0 10.56 0 16 C-5.28 16 -10.56 16 -16 16 C-2.72 0 -2.72 0 0 0 Z " fill="#e6e7e717" transform="translate(280,104)"/>
<path d="M0 0 C4.89 4.1 9.71 8.26 14 13 C14 13.33 14 13.66 14 14 C9.38 14 4.76 14 0 14 C0 9.38 0 4.76 0 0 Z " fill="#e6e7e717" transform="translate(180,226)"/>
<path d="M0 0 C1.65 0 3.3 0 5 0 C4.95 0.87 4.91 1.74 4.86 2.63 C4.57 11.6 4.57 11.6 9 19 C9 19.99 9 20.98 9 22 C4.54 21.01 4.54 21.01 0 20 C0 13.4 0 6.8 0 0 Z " fill="#e6e7e717" transform="translate(520,200)"/>
<path d="M0 0 C1.55 1.33 1.55 1.33 3.12 2.69 C5.5 4.73 7.9 6.75 10.31 8.75 C13 11 13 11 15 13 C10.05 13 5.1 13 0 13 C0 8.71 0 4.42 0 0 Z " fill="#e6e7e717" transform="translate(260,307)"/>
<path d="M0 0 C7.48 6.15 7.48 6.15 10 10 C8.68 10.33 7.36 10.66 6 11 C6 11.99 6 12.98 6 14 C4.68 14 3.36 14 2 14 C2 11.36 2 8.72 2 6 C1.01 5.67 0.02 5.34 -1 5 C-0.67 3.35 -0.34 1.7 0 0 Z " fill="#e6e7e717" transform="translate(220,266)"/>
<path d="M0 0 C0.66 0.33 1.32 0.66 2 1 C2 3.97 2 6.94 2 10 C-1.63 10 -5.26 10 -9 10 C-2.97 2.9 -2.97 2.9 0 0 Z " fill="#e6e7e717" transform="translate(218,166)"/>
<path d="M0 0 C0 3 0 3 -1 5 C0.32 5.66 1.64 6.32 3 7 C2.67 7.66 2.34 8.32 2 9 C0.07 9.34 0.07 9.34 -2.31 9.5 C-5.71 9.72 -8.03 10.32 -11 12 C-7.49 7.82 -3.92 3.8 0 0 Z " fill="#e6e7e717" transform="translate(254,129)"/>
<path d="M0 0 C0.33 0.66 0.66 1.32 1 2 C0.06 4.12 0.06 4.12 -1 6 C-1.66 6 -2.32 6 -3 6 C-3 6.66 -3 7.32 -3 8 C-2.01 8.66 -1.02 9.32 0 10 C-0.33 10.66 -0.66 11.32 -1 12 C-1.99 12 -2.98 12 -4 12 C-4.33 11.34 -4.66 10.68 -5 10 C-6.65 10.33 -8.3 10.66 -10 11 C-6.79 7.19 -3.59 3.45 0 0 Z " fill="#272928" transform="translate(198,140)"/>
<path d="M0 0 C0 3.87 -1.42 6.51 -3 10 C-4.32 10 -5.64 10 -7 10 C-7.33 10.66 -7.66 11.32 -8 12 C-8.66 11.34 -9.32 10.68 -10 10 C-6.67 6.67 -3.33 3.33 0 0 Z " fill="#2C2E2D" transform="translate(258,79)"/>
<path d="M0 0 C1.18 0.93 2.34 1.87 3.5 2.81 C4.15 3.33 4.8 3.86 5.47 4.39 C7 6 7 6 7 9 C4.69 8.67 2.38 8.34 0 8 C0 5.36 0 2.72 0 0 Z " fill="#e6e7e717" transform="translate(560,252)"/>
<path d="M0 0 C0.67 2 1.33 4 2 6 C3.09 5.83 4.19 5.67 5.31 5.5 C9 5 9 5 12 5 C9.61 7.39 8.96 7.3 5.69 7.31 C1.69 7.24 -0.77 6.5 -4 4 C-3.67 3.01 -3.34 2.02 -3 1 C-2.01 0.67 -1.02 0.34 0 0 Z " fill="#262827" transform="translate(534,441)"/>
<path d="M0 0 C0.66 0 1.32 0 2 0 C2 0.99 2 1.98 2 3 C2.66 3.33 3.32 3.66 4 4 C3.67 5.65 3.34 7.3 3 9 C0.69 7.02 -1.62 5.04 -4 3 C-3.01 2.67 -2.02 2.34 -1 2 C-0.67 1.34 -0.34 0.68 0 0 Z " fill="#e6e7e717" transform="translate(588,228)"/>
<path d="M0 0 C2.64 0.33 5.28 0.66 8 1 C8.33 2.98 8.66 4.96 9 7 C4.58 5.65 2.66 3.74 0 0 Z " fill="#232423" transform="translate(348,328)"/>
<path d="M0 0 C1.15 0.95 2.29 1.91 3.44 2.88 C4.39 3.68 4.39 3.68 5.37 4.49 C7 6 7 6 8 8 C7.01 8.33 6.02 8.66 5 9 C4.34 8.67 3.68 8.34 3 8 C3 7.34 3 6.68 3 6 C2.01 5.67 1.02 5.34 0 5 C0 3.35 0 1.7 0 0 Z " fill="#2A2C2B" transform="translate(278,279)"/>
<path d="M0 0 C1.16 3.47 1.07 6.36 1 10 C0.34 10 -0.32 10 -1 10 C-1.66 8.68 -2.32 7.36 -3 6 C-3.99 6 -4.98 6 -6 6 C-4.02 4.02 -2.04 2.04 0 0 Z " fill="#252726" transform="translate(269,68)"/>
<path d="M0 0 C0.33 0 0.66 0 1 0 C1 2.31 1 4.62 1 7 C-1.31 7 -3.62 7 -6 7 C-5.02 5.83 -4.04 4.66 -3.06 3.5 C-2.52 2.85 -1.97 2.2 -1.41 1.53 C-0.71 0.77 -0.71 0.77 0 0 Z " fill="#e6e7e717" transform="translate(659,333)"/>
<path d="M0 0 C0.33 0 0.66 0 1 0 C1.34 1.6 1.67 3.21 2 4.81 C2.19 5.71 2.37 6.6 2.56 7.52 C3 10 3 10 3 13 C1 14.69 1 14.69 -1 16 C-1.33 15.34 -1.66 14.68 -2 14 C-1.34 14 -0.68 14 0 14 C0 9.38 0 4.76 0 0 Z " fill="#e6e7e717" transform="translate(180,144)"/>
<path d="M0 0 C0.33 0.66 0.66 1.32 1 2 C0.07 4.03 -0.93 6.04 -2 8 C-5 8 -5 8 -7 7 C-4.69 4.69 -2.38 2.38 0 0 Z " fill="#262626" transform="translate(603,344)"/>
<path d="M0 0 C1.15 0.95 2.29 1.91 3.44 2.88 C4.39 3.68 4.39 3.68 5.37 4.49 C7 6 7 6 8 8 C6.68 8.33 5.36 8.66 4 9 C3.75 8.03 3.5 7.06 3.25 6.06 C2.63 4.55 2.63 4.55 2 3 C-0.03 2.03 -0.03 2.03 -2 2 C-1.34 2 -0.68 2 0 2 C0 1.34 0 0.68 0 0 Z " fill="#e6e7e717" transform="translate(585,277)"/>
<path d="M0 0 C3.87 0.57 6.08 2.49 9 5 C8.67 5.99 8.34 6.98 8 8 C6.85 7.05 5.71 6.09 4.56 5.12 C3.92 4.59 3.29 4.06 2.63 3.51 C1 2 1 2 0 0 Z " fill="#272928" transform="translate(178,223)"/>
<path d="M0 0 C1.65 0 3.3 0 5 0 C4.67 0.66 4.34 1.32 4 2 C5.32 2.66 6.64 3.32 8 4 C7.67 5.32 7.34 6.64 7 8 C5.83 6.86 4.66 5.71 3.5 4.56 C2.85 3.92 2.2 3.29 1.53 2.63 C0 1 0 1 0 0 Z " fill="#303231" transform="translate(238,284)"/>
<path d="M0 0 C0 3 0 3 -1.56 5.56 C-2.04 6.37 -2.51 7.17 -3 8 C-2.67 8.66 -2.34 9.32 -2 10 C-2.99 10 -3.98 10 -5 10 C-5 9.34 -5 8.68 -5 8 C-5.66 7.67 -6.32 7.34 -7 7 C-4.69 4.69 -2.38 2.38 0 0 Z " fill="#262827" transform="translate(206,132)"/>
<path d="M0 0 C0.33 0.66 0.66 1.32 1 2 C2.65 1.67 4.3 1.34 6 1 C5.67 2.98 5.34 4.96 5 7 C3.02 5.35 1.04 3.7 -1 2 C-0.67 1.34 -0.34 0.68 0 0 Z " fill="#252726" transform="translate(248,292)"/>
<path d="M0 0 C2.31 1.98 4.62 3.96 7 6 C4 7 4 7 1 7 C0.67 4.69 0.34 2.38 0 0 Z " fill="#242625" transform="translate(631,278)"/>
<path d="M0 0 C-0.33 1.98 -0.66 3.96 -1 6 C-3.97 5.5 -3.97 5.5 -7 5 C-2.25 0 -2.25 0 0 0 Z " fill="#252626" transform="translate(534,193)"/>
<path d="M0 0 C0.33 0.66 0.66 1.32 1 2 C1.66 2.33 2.32 2.66 3 3 C1.71 4.38 0.37 5.71 -1 7 C-1.66 7 -2.32 7 -3 7 C-3.33 6.01 -3.66 5.02 -4 4 C-2.68 2.68 -1.36 1.36 0 0 Z " fill="#e6e7e717" transform="translate(641,351)"/>
<path d="M0 0 C0.99 1.32 1.98 2.64 3 4 C2.01 5.49 2.01 5.49 1 7 C-0.65 5.02 -2.3 3.04 -4 1 C-2.68 1.33 -1.36 1.66 0 2 C0 1.34 0 0.68 0 0 Z " fill="#2D2D2D" transform="translate(542,228)"/>
<path d="M0 0 C0.99 0.33 1.98 0.66 3 1 C-0.47 3.97 -0.47 3.97 -4 7 C-4 5.68 -4 4.36 -4 3 C-2.19 1.19 -2.19 1.19 0 0 Z " fill="#313232" transform="translate(553,438)"/>
<path d="M0 0 C1.32 0 2.64 0 4 0 C4 0.66 4 1.32 4 2 C5.32 2.66 6.64 3.32 8 4 C7.01 4.66 6.02 5.32 5 6 C3.35 4.02 1.7 2.04 0 0 Z " fill="#2B2D2C" transform="translate(172,217)"/>
<path d="M0 0 C1.32 0.33 2.64 0.66 4 1 C1.03 3.47 1.03 3.47 -2 6 C-2.33 5.01 -2.66 4.02 -3 3 C-2.34 3 -1.68 3 -1 3 C-0.67 2.01 -0.34 1.02 0 0 Z " fill="#e6e7e717" transform="translate(175,160)"/>
<path d="M0 0 C1.65 1.65 3.3 3.3 5 5 C3.02 5.66 1.04 6.32 -1 7 C-0.67 4.69 -0.34 2.38 0 0 Z " fill="#282A29" transform="translate(642,289)"/>
<path d="M0 0 C0.66 0.99 1.32 1.98 2 3 C0.68 3.99 -0.64 4.98 -2 6 C-2.99 5.34 -3.98 4.68 -5 4 C-3.35 2.68 -1.7 1.36 0 0 Z " fill="#e6e7e717" transform="translate(573,371)"/>
<path d="M0 0 C0.66 1.32 1.32 2.64 2 4 C0.68 4.99 -0.64 5.98 -2 7 C-2.99 6.34 -3.98 5.68 -5 5 C-3.35 3.35 -1.7 1.7 0 0 Z " fill="#e6e7e717" transform="translate(636,356)"/>
<path d="M0 0 C0.33 0 0.66 0 1 0 C1.33 3.3 1.66 6.6 2 10 C1.01 9.67 0.02 9.34 -1 9 C-2.26 5.23 -1.37 3.63 0 0 Z " fill="#e6e7e717" transform="translate(523,205)"/>
<path d="M0 0 C2.06 2.31 2.06 2.31 4 5 C3.67 5.99 3.34 6.98 3 8 C0.94 6.25 0.94 6.25 -1 4 C-0.75 1.75 -0.75 1.75 0 0 Z " fill="#272928" transform="translate(169,209)"/>
</svg>
