<?xml version="1.0" encoding="UTF-8"?>
<!-- Generator: visioncortex VTracer 0.6.4 -->
<svg version="1.1" xmlns="http://www.w3.org/2000/svg" width="225" height="225">
<path d="M0 0 C74.25 0 148.5 0 225 0 C225 74.25 225 148.5 225 225 C150.75 225 76.5 225 0 225 C0 150.75 0 76.5 0 0 Z " fill="#FECA04" transform="translate(0,0)"/>
<path d="M0 0 C3.13 1.78 5.58 3.66 8.13 6.21 C8.13 6.87 8.13 7.53 8.13 8.21 C9.12 8.21 10.11 8.21 11.13 8.21 C11.36 7.62 11.59 7.03 11.83 6.41 C13.48 3.63 15.21 2.64 18.01 1.03 C19.3 0.26 19.3 0.26 20.62 -0.52 C27.59 -4.04 36.57 -4.06 43.99 -1.98 C51.53 1.42 57.73 7.43 61.13 15.03 C63.58 23.09 62.88 31.37 59.39 38.96 C55.26 46.38 49.38 51.2 41.24 53.82 C31.82 55.57 24.14 54.44 16.13 49.21 C13.01 47.03 13.01 47.03 11.13 45.21 C11.13 44.55 11.13 43.89 11.13 43.21 C10.14 43.21 9.15 43.21 8.13 43.21 C7.9 43.81 7.67 44.4 7.44 45.02 C5.78 47.8 4.05 48.79 1.26 50.4 C0.39 50.91 -0.47 51.42 -1.36 51.95 C-8.1 55.36 -17.11 55.54 -24.32 53.53 C-26.33 52.58 -28.06 51.52 -29.87 50.21 C-30.79 49.6 -30.79 49.6 -31.73 48.96 C-37.71 44.47 -40.54 38.19 -42.87 31.21 C-44.02 21.91 -42.08 14.98 -36.87 7.21 C-34.75 4.76 -32.58 2.97 -29.87 1.21 C-29.3 0.8 -28.73 0.39 -28.14 -0.03 C-19.76 -5.21 -8.62 -4 0 0 Z " fill="#E75151" transform="translate(102.8671875,86.78515625)"/>
<path d="M0 0 C0.33 0 0.66 0 1 0 C1 33.66 1 67.32 1 102 C-34.31 102 -69.62 102 -106 102 C-106 101.67 -106 101.34 -106 101 C-104.51 100.89 -104.51 100.89 -102.98 100.77 C-75.81 98.37 -52.78 87.67 -33 69 C-32.31 68.37 -31.62 67.75 -30.91 67.11 C-12.77 50.05 -2.87 24.34 0 0 Z " fill="#FFFEFC" transform="translate(224,123)"/>
<path d="M0 0 C0.33 0 0.66 0 1 0 C1.07 0.92 1.15 1.85 1.23 2.8 C3.93 29.66 14.48 52.42 33 72 C33.66 72.71 34.32 73.43 35 74.16 C53.03 93.02 76.98 100.93 102 105 C102 105.33 102 105.66 102 106 C68.34 106 34.68 106 0 106 C0 71.02 0 36.04 0 0 Z " fill="#FFFEFC" transform="translate(0,119)"/>
<path d="M0 0 C35.31 0 70.62 0 107 0 C107 33.33 107 66.66 107 101 C106.67 101 106.34 101 106 101 C105.78 99.74 105.56 98.48 105.34 97.19 C101.28 74.88 93.55 54.93 78 38 C77.55 37.51 77.11 37.02 76.65 36.52 C56.37 14.56 29.56 3.22 0 1 C0 0.67 0 0.34 0 0 Z " fill="#FFFEFC" transform="translate(118,0)"/>
<path d="M0 0 C34.32 0 68.64 0 104 0 C104 0.33 104 0.66 104 1 C103.16 1.1 102.33 1.2 101.46 1.3 C70.35 5.29 43.3 19.39 23.52 44.1 C11.13 61.3 4.37 80.17 1 101 C0.67 101 0.34 101 0 101 C0 67.67 0 34.34 0 0 Z " fill="#FFFEFD" transform="translate(0,0)"/>
<path d="M0 0 C6.8 3.96 12.89 10.18 15.22 17.84 C16.97 27.49 15.65 35.8 10.34 44.06 C6 49.67 -0.35 53.76 -7.38 55.06 C-18.08 56.08 -24.67 53.9 -33.44 48 C-35.59 45.84 -36.03 45.04 -36.38 42.06 C-35.6 39.62 -35.6 39.62 -34.44 36.94 C-31.5 29.24 -31.19 23.36 -34.5 15.75 C-34.89 14.97 -35.29 14.19 -35.7 13.39 C-36.38 11.06 -36.38 11.06 -35.76 8.47 C-34.18 5.72 -32.79 4.57 -30.12 2.88 C-29.38 2.39 -28.63 1.9 -27.86 1.39 C-19.4 -3.14 -8.85 -3.97 0 0 Z " fill="#05A6E6" transform="translate(149.375,85.9375)"/>
<path d="M0 0 C0.66 0.33 1.32 0.66 2 1 C1.24 1.51 0.48 2.02 -0.31 2.55 C-12.98 11.47 -22.19 23.46 -25.63 38.82 C-27.74 57.08 -25.49 73.03 -14 88 C-12.09 90.16 -10.15 92.06 -8 94 C-4.1 92.42 -1.71 89.88 1.19 86.88 C2.78 85.23 4.38 83.6 6 82 C6.33 82 6.66 82 7 82 C7 94.87 7 107.74 7 121 C-5.87 121 -18.74 121 -32 121 C-28.38 116.77 -24.96 112.84 -21 109 C-22.46 105.85 -24.25 103.22 -26.31 100.44 C-29.99 95.21 -32.73 89.97 -35 84 C-35.32 83.16 -35.64 82.31 -35.97 81.45 C-41.39 64.05 -38.77 45.29 -30.81 29.31 C-23.94 17.15 -12.82 5.91 0 0 Z " fill="#FFFDF9" transform="translate(69,68)"/>
<path d="M0 0 C12.87 0 25.74 0 39 0 C35.38 4.23 31.96 8.16 28 12 C29.5 15.18 31.3 18.02 33.25 20.94 C43.85 37.53 48 54.82 43.92 74.26 C39.45 92.67 29.39 106.21 14 117 C13.34 116.67 12.68 116.34 12 116 C12.84 115.25 12.84 115.25 13.69 114.49 C26.01 102.9 32.9 89.51 33.52 72.6 C33.75 56.64 30.06 43.23 19.22 30.99 C17.86 29.61 16.44 28.3 15 27 C11.1 28.58 8.71 31.12 5.81 34.12 C4.22 35.77 2.62 37.4 1 39 C0.67 39 0.34 39 0 39 C0 26.13 0 13.26 0 0 Z " fill="#6A5751" transform="translate(149,36)"/>
<path d="M0 0 C0.99 0 1.98 0 3 0 C3 1.32 3 2.64 3 4 C3.72 3.88 4.44 3.75 5.19 3.62 C8.45 4.06 8.8 4.56 10.81 7 C11.53 7.99 12.26 8.98 13 10 C12.34 11.32 11.68 12.64 11 14 C9.12 13.75 9.12 13.75 7 13 C5.88 11 5.88 11 5 9 C4.34 8.67 3.68 8.34 3 8 C3.33 10.97 3.66 13.94 4 17 C5.09 17.41 6.19 17.83 7.31 18.25 C10.53 19.66 12.45 20.72 14 24 C14.67 28.55 14.35 30.45 11.88 34.38 C8.75 37.23 7.16 37.81 3 38 C3 39.32 3 40.64 3 42 C2.01 42 1.02 42 0 42 C0 40.68 0 39.36 0 38 C-0.89 37.96 -1.77 37.92 -2.69 37.88 C-7.34 36.65 -8.44 35.04 -11 31 C-10.81 28.12 -10.81 28.12 -10 26 C-8.35 26 -6.7 26 -5 26 C-4.55 26.97 -4.09 27.94 -3.62 28.94 C-2.34 32.07 -2.34 32.07 0 33 C0 29.7 0 26.4 0 23 C-0.91 22.77 -1.81 22.55 -2.75 22.31 C-6.56 20.77 -7.92 19.52 -10 16 C-10.64 12.18 -10.32 10.55 -8.38 7.19 C-5.56 4.59 -3.77 4.26 0 4 C0 2.68 0 1.36 0 0 Z " fill="#FEF7F7" transform="translate(87,92)"/>
<path d="M0 0 C2.96 2.05 3.81 3.29 4.75 6.75 C4.87 7.86 4.87 7.86 5 9 C3.02 9 1.04 9 -1 9 C-1.33 8.01 -1.66 7.02 -2 6 C-3.65 6.33 -5.3 6.66 -7 7 C-7 9.64 -7 12.28 -7 15 C-4.69 15 -2.38 15 0 15 C0 16.65 0 18.3 0 20 C-1.98 20 -3.96 20 -6 20 C-6.33 22.31 -6.66 24.62 -7 27 C-5.84 27.16 -5.84 27.16 -4.66 27.33 C-3.16 27.57 -3.16 27.57 -1.62 27.81 C-0.63 27.96 0.37 28.11 1.4 28.27 C4 29 4 29 6 32 C6 32.99 6 33.98 6 35 C1.88 37.06 -3.39 36.09 -7.81 35.44 C-11.01 34.76 -11.01 34.76 -14 36 C-15.19 33.25 -15.19 33.25 -16 30 C-14.69 27.94 -14.69 27.94 -13 26 C-12.29 23.35 -12.29 23.35 -12 21 C-13.32 21 -14.64 21 -16 21 C-16 19.02 -16 17.04 -16 15 C-15.01 15 -14.02 15 -13 15 C-13.06 14.34 -13.12 13.67 -13.18 12.99 C-13.41 8.43 -13.51 5.8 -11 1.88 C-6.84 -0.73 -4.86 -0.69 0 0 Z " fill="#F5FAFD" transform="translate(141,95)"/>
<path d="M0 0 C-0.65 0.35 -1.3 0.7 -1.98 1.07 C-9.19 5.14 -15.5 9.74 -18.53 17.8 C-20.45 26.76 -19.79 36.1 -15 44 C-10.88 49.41 -6.16 52.3 0 55 C-2.26 55.77 -3.58 56.13 -5.89 55.43 C-16.09 50.14 -21.33 44 -25 33 C-26.15 23.69 -24.22 16.76 -19 9 C-14.57 3.86 -6.99 -2.37 0 0 Z " fill="#EF766E" transform="translate(85,85)"/>
<path d="M0 0 C-0.74 0.42 -1.47 0.85 -2.23 1.29 C-8.33 4.95 -12.2 8 -16 14 C-16.66 14 -17.32 14 -18 14 C-18.75 12.31 -18.75 12.31 -19 10 C-15.85 4.42 -9.81 1.24 -3.84 -0.7 C-2 -1 -2 -1 0 0 Z " fill="#34B7E6" transform="translate(132,85)"/>
<path d="M0 0 C0.66 0 1.32 0 2 0 C2.86 1.18 3.66 2.39 4.44 3.62 C8.21 8.91 13.23 11.29 19 14 C16.4 14.98 15.26 15.09 12.6 14.14 C0.8 7.95 0.8 7.95 -0.88 3.88 C-1 2 -1 2 0 0 Z " fill="#36B7E5" transform="translate(114,126)"/>
<path d="M0 0 C4 1 4 1 5 2 C5.19 4.44 5.19 4.44 5 7 C4.34 7.66 3.68 8.32 3 9 C2.01 9 1.02 9 0 9 C0 6.03 0 3.06 0 0 Z " fill="#EC5D5D" transform="translate(90,116)"/>
<path d="M0 0 C0.99 0 1.98 0 3 0 C3 2.64 3 5.28 3 8 C1.68 7.67 0.36 7.34 -1 7 C-1.62 5.19 -1.62 5.19 -2 3 C-1.34 2.01 -0.68 1.02 0 0 Z " fill="#ED6C6C" transform="translate(85,100)"/>
<path d="M0 0 C0.66 0.33 1.32 0.66 2 1 C-0.97 2.98 -3.94 4.96 -7 7 C-7 6.01 -7 5.02 -7 4 C-1.73 0.78 -1.73 0.78 0 0 Z " fill="#FFEDB7" transform="translate(69,68)"/>
</svg>
